<svg xmlns="http://www.w3.org/2000/svg" width="284" height="76" viewBox="0 0 284 76"><g fill="#FFFFFF"><g transform="translate(20.000,56.036) scale(0.052000,-0.052000)"><path d="M559 634 481 541Q450 565 420.0 577.0Q390 589 356 589Q286 589 245.5 530.0Q205 471 205 348Q205 227 245.5 168.5Q286 110 358 110Q396 110 427.0 124.5Q458 139 494 166L567 72Q528 33 472.5 8.0Q417 -17 350 -17Q254 -17 183.0 25.0Q112 67 72.5 149.5Q33 232 33 348Q33 461 73.5 543.0Q114 625 185.5 667.5Q257 710 348 710Q413 710 463.5 691.0Q514 672 559 634Z"/></g><g transform="translate(53.100,56.036) scale(0.052000,-0.052000)"><path d="M430 0 394 149H192L157 0H-13L196 693H395L604 0ZM220 268H366L293 574Z"/></g><g transform="translate(86.980,56.036) scale(0.052000,-0.052000)"><path d="M618 350Q618 157 522.0 78.5Q426 0 273 0H65V693H258Q421 693 519.5 619.5Q618 546 618 350ZM229 574V119H283Q364 119 406.0 169.5Q448 220 448 350Q448 439 427.0 488.0Q406 537 370.0 555.5Q334 574 281 574Z"/></g><g transform="translate(124.032,56.036) scale(0.052000,-0.052000)"><path d="M753 0H592L580 271Q575 368 575 444Q575 502 578 554L471 73H316L202 554Q208 467 208 390Q208 332 205 269L193 0H33L85 693H292L396 223L493 693H701Z"/></g><g transform="translate(168.104,56.036) scale(0.052000,-0.052000)"><path d="M229 693V0H65V693Z"/></g><g transform="translate(186.540,56.036) scale(0.052000,-0.052000)"><path d="M596 230Q596 159 565.5 103.0Q535 47 474.0 15.0Q413 -17 325 -17Q193 -17 124.0 50.0Q55 117 55 230V693H219V237Q219 170 244.5 137.5Q270 105 325 105Q381 105 406.5 137.5Q432 170 432 237V693H596Z"/></g><g transform="translate(223.592,56.036) scale(0.052000,-0.052000)"><path d="M753 0H592L580 271Q575 368 575 444Q575 502 578 554L471 73H316L202 554Q208 467 208 390Q208 332 205 269L193 0H33L85 693H292L396 223L493 693H701Z"/></g></g></svg>
